<svg xmlns="http://www.w3.org/2000/svg" xmlns:xlink="http://www.w3.org/1999/xlink" width="1920" zoomAndPan="magnify" viewBox="0 0 1440 809.999993" height="1080" preserveAspectRatio="xMidYMid meet" version="1.0"><defs><g/></defs><rect x="-144" width="1728" fill="#ffffff" y="-80.999999" height="971.999992" fill-opacity="1"/><rect x="-144" width="1728" fill="#ffffff" y="-80.999999" height="971.999992" fill-opacity="1"/><g fill="#000000" fill-opacity="1"><g transform="translate(316.789033, 486.749996)"><g><path d="M 78.296875 51.90625 L 64.796875 31.5 C 65.398438 30.695312 66.203125 29.695312 67.203125 28.5 C 68.203125 27.300781 70.300781 25.050781 73.5 21.75 C 76.695312 18.445312 79.796875 15.546875 82.796875 13.046875 C 85.796875 10.546875 89.296875 8.296875 93.296875 6.296875 C 97.296875 4.296875 101 3.296875 104.40625 3.296875 L 104.40625 2.09375 C 75.195312 -3.5 51.644531 -17.894531 33.75 -41.09375 C 15.851562 -64.300781 6.90625 -91.90625 6.90625 -123.90625 C 6.90625 -159.90625 18.90625 -190.253906 42.90625 -214.953125 C 66.90625 -239.648438 96.003906 -252 130.203125 -252 C 164.597656 -252 193.695312 -239.648438 217.5 -214.953125 C 241.300781 -190.253906 253.203125 -159.90625 253.203125 -123.90625 C 253.203125 -94.5 245.300781 -68.59375 229.5 -46.1875 C 213.695312 -23.789062 192.894531 -8.695312 167.09375 -0.90625 L 167.09375 0.296875 C 168.300781 0.296875 173.601562 1.242188 183 3.140625 C 192.394531 5.046875 199.894531 6 205.5 6 C 213.101562 6 220.003906 4.648438 226.203125 1.953125 C 232.398438 -0.742188 236.695312 -3.394531 239.09375 -6 L 242.703125 -10.203125 L 260.40625 27.90625 C 260 28.90625 259.34375 30.15625 258.4375 31.65625 C 257.539062 33.15625 255.492188 35.800781 252.296875 39.59375 C 249.097656 43.394531 245.546875 46.796875 241.640625 49.796875 C 237.742188 52.796875 232.546875 55.492188 226.046875 57.890625 C 219.546875 60.296875 212.597656 61.5 205.203125 61.5 C 193.003906 61.5 178.101562 57.597656 160.5 49.796875 C 142.894531 41.992188 127.695312 38.09375 114.90625 38.09375 C 107.90625 38.09375 101.351562 39.242188 95.25 41.546875 C 89.144531 43.847656 84.796875 46.195312 82.203125 48.59375 Z M 67.796875 -123.90625 C 67.796875 -114.300781 68.894531 -105.347656 71.09375 -97.046875 C 73.300781 -88.742188 76.753906 -81.191406 81.453125 -74.390625 C 86.148438 -67.597656 92.648438 -62.25 100.953125 -58.34375 C 109.253906 -54.445312 119.003906 -52.5 130.203125 -52.5 C 151.203125 -52.5 166.800781 -59.296875 177 -72.890625 C 187.195312 -86.492188 192.296875 -103.5 192.296875 -123.90625 C 192.296875 -144.101562 187.09375 -161.050781 176.6875 -174.75 C 166.289062 -188.445312 150.796875 -195.296875 130.203125 -195.296875 C 109.796875 -195.296875 94.289062 -188.394531 83.6875 -174.59375 C 73.09375 -160.800781 67.796875 -143.90625 67.796875 -123.90625 Z M 67.796875 -123.90625 "/></g></g></g><g fill="#000000" fill-opacity="1"><g transform="translate(576.888555, 486.749996)"><g><path d="M 208.203125 -247.5 L 208.203125 -87.90625 C 208.203125 -57.5 200 -34.492188 183.59375 -18.890625 C 167.195312 -3.296875 143.195312 4.5 111.59375 4.5 C 80 4.5 56 -3.296875 39.59375 -18.890625 C 23.195312 -34.492188 15 -57.5 15 -87.90625 L 15 -247.5 L 71.40625 -247.5 L 71.40625 -104.40625 C 71.40625 -84.40625 74.550781 -70.503906 80.84375 -62.703125 C 87.144531 -54.898438 97.394531 -51 111.59375 -51 C 125.800781 -51 136.050781 -54.898438 142.34375 -62.703125 C 148.644531 -70.503906 151.796875 -84.40625 151.796875 -104.40625 L 151.796875 -247.5 Z M 208.203125 -247.5 "/></g></g></g><g fill="#000000" fill-opacity="1"><g transform="translate(800.088207, 486.749996)"><g><path d="M 74.40625 -247.5 L 74.40625 0 L 18 0 L 18 -247.5 Z M 74.40625 -247.5 "/></g></g></g><g fill="#000000" fill-opacity="1"><g transform="translate(892.487982, 486.749996)"><g><path d="M 225.90625 -247.5 L 103.203125 -49.5 L 217.796875 -49.5 L 217.796875 0 L 4.796875 0 L 127.203125 -198 L 22.203125 -198 L 22.203125 -247.5 Z M 225.90625 -247.5 "/></g></g></g></svg>