<svg xmlns="http://www.w3.org/2000/svg" xmlns:xlink="http://www.w3.org/1999/xlink" width="1920" zoomAndPan="magnify" viewBox="0 0 1440 809.999993" height="1080" preserveAspectRatio="xMidYMid meet" version="1.0"><defs><g/></defs><rect x="-144" width="1728" fill="#ffffff" y="-80.999999" height="971.999992" fill-opacity="1"/><rect x="-144" width="1728" fill="#ffffff" y="-80.999999" height="971.999992" fill-opacity="1"/><g fill="#000000" fill-opacity="1"><g transform="translate(413.093716, 486.749996)"><g><path d="M 2.40625 -198 L 2.40625 -247.5 L 176.40625 -247.5 L 176.40625 -198 L 117.59375 -198 L 117.59375 0 L 61.203125 0 L 61.203125 -198 Z M 2.40625 -198 "/></g></g></g><g fill="#000000" fill-opacity="1"><g transform="translate(591.893407, 486.749996)"><g><path d="M 143.703125 -247.5 L 243.59375 0 L 183 0 L 164.703125 -49.5 L 70.5 -49.5 L 52.203125 0 L -8.40625 0 L 91.5 -247.5 Z M 145.5 -99 L 117.90625 -171 L 117.296875 -171 L 89.703125 -99 Z M 145.5 -99 "/></g></g></g><g fill="#000000" fill-opacity="1"><g transform="translate(827.093013, 486.749996)"><g><path d="M 18 -247.5 L 108.296875 -247.5 C 133.492188 -247.5 153.894531 -241 169.5 -228 C 185.101562 -215 192.90625 -196.097656 192.90625 -171.296875 C 192.90625 -146.492188 185.003906 -127.039062 169.203125 -112.9375 C 153.398438 -98.84375 133.097656 -91.796875 108.296875 -91.796875 L 74.40625 -91.796875 L 74.40625 0 L 18 0 Z M 74.40625 -136.796875 L 90.296875 -136.796875 C 102.898438 -136.796875 113.25 -139.34375 121.34375 -144.4375 C 129.445312 -149.539062 133.5 -157.894531 133.5 -169.5 C 133.5 -181.300781 129.445312 -189.75 121.34375 -194.84375 C 113.25 -199.945312 102.898438 -202.5 90.296875 -202.5 L 74.40625 -202.5 Z M 74.40625 -136.796875 "/></g></g></g></svg>